<?xml version="1.0" encoding="UTF-8" standalone="no"?>
<!-- Created with Inkscape (http://www.inkscape.org/) -->

<svg
   xmlns:dc="http://purl.org/dc/elements/1.1/"
   xmlns:cc="http://creativecommons.org/ns#"
   xmlns:rdf="http://www.w3.org/1999/02/22-rdf-syntax-ns#"
   xmlns:svg="http://www.w3.org/2000/svg"
   xmlns="http://www.w3.org/2000/svg"
   xmlns:sodipodi="http://sodipodi.sourceforge.net/DTD/sodipodi-0.dtd"
   xmlns:inkscape="http://www.inkscape.org/namespaces/inkscape"
   id="svg3370"
   version="1.1"
   inkscape:version="0.91 r13725"
   xml:space="preserve"
   width="264.0994"
   height="82.22139"
   viewBox="0 0 264.0994 82.22139"
   sodipodi:docname="arnes.svg"><metadata
     id="metadata3376"><rdf:RDF><cc:Work
         rdf:about=""><dc:format>image/svg+xml</dc:format><dc:type
           rdf:resource="http://purl.org/dc/dcmitype/StillImage" /><dc:title></dc:title></cc:Work></rdf:RDF></metadata><defs
     id="defs3374" /><sodipodi:namedview
     pagecolor="#ffffff"
     bordercolor="#666666"
     borderopacity="1"
     objecttolerance="10"
     gridtolerance="10"
     guidetolerance="10"
     inkscape:pageopacity="0"
     inkscape:pageshadow="2"
     inkscape:window-width="1362"
     inkscape:window-height="729"
     id="namedview3372"
     showgrid="false"
     inkscape:zoom="0.31466667"
     inkscape:cx="-391.34171"
     inkscape:cy="41.459966"
     inkscape:window-x="1920"
     inkscape:window-y="18"
     inkscape:window-maximized="0"
     inkscape:current-layer="g3378"
     fit-margin-top="0"
     fit-margin-left="0"
     fit-margin-right="0"
     fit-margin-bottom="0" /><g
     id="g3378"
     inkscape:groupmode="layer"
     inkscape:label="arnes"
     transform="matrix(1.25,0,0,-1.25,-368.56629,415.76143)"><g
       id="g3380"
       transform="scale(1,-1)"><path
         d="m 478.31934,-298.91309 c 4.07324,-4.25683 6.19433,-9.31396 7.11425,-14.37011 4.36524,3.74511 7.15039,8.72998 8.25977,14.35351 -4.53516,1.49414 -9.42773,1.74219 -15.49609,-0.01 m 27.86718,-8.41455 c -0.14453,-0.18409 -0.37207,-0.0151 -0.37207,-0.0151 -2.66504,3.14014 -5.86914,5.76904 -9.98633,7.68799 -1.24316,-6.5708 -3.49316,-11.55811 -10.02246,-16.63721 -0.29882,-6.40185 -1.94238,-11.24756 -5.36035,-16.18262 -0.21386,-0.26025 -0.56543,-0.005 -0.44043,0.29004 2.65528,4.52002 3.91992,9.625 3.66602,14.85694 -5.97852,-2.75635 -11.20313,-3.41504 -17.55176,-2.43311 -0.31738,0.082 -0.25684,0.53613 0.0684,0.52393 6.39941,-0.33985 12.24121,1.06005 17.20996,4.51416 -1.01562,5.53906 -3.28418,10.72265 -7.59766,14.93701 -10.12304,-3.83496 -15.43457,-12.58399 -16.74804,-20.80029 -0.0967,-0.30762 -0.52246,-0.23096 -0.50196,0.0923 1.01075,9.31494 5.50391,17.46191 15.05665,22.59229 -4.33008,3.60839 -10.81055,6.03515 -17.09375,5.92773 -0.33594,0.0273 -0.34375,0.46094 -0.0274,0.52148 7.22266,0.67872 13.89258,-1.10449 19.83008,-5.38671 6.19336,1.61035 11.95312,1.90722 17.83594,-0.0957 0.51953,5.40625 -0.30078,10.73242 -2.75391,15.55664 -0.11816,0.31543 0.26367,0.51563 0.46387,0.25586 3.13574,-5.16211 4.34082,-10.43164 4.18262,-16.54687 4.8789,-2.88965 7.4375,-5.56983 10.14746,-9.3086 0,0 0.1455,-0.17187 -0.005,-0.35009"
         style="fill:#ee7d3c;fill-opacity:1;fill-rule:evenodd;stroke:none"
         id="path3382"
         inkscape:connector-curvature="0" /><path
         d="m 346.51074,-285.36328 c -1.82226,0 -2.91699,-1.03223 -2.91699,-2.3125 0,-1.51367 0.79395,-1.63379 0.79395,-2.79199 0,-1.08985 -0.72803,-1.75977 -1.57715,-1.75977 -2.60694,0 -5.19873,3.06152 -6.1709,7.61621 0,0 0,15.01465 0,15.01465 0,0.0811 -0.29688,0.29004 -0.29688,0.29004 0,0 0.38184,-0.0488 0.66114,-0.0488 0,0 3.39795,0 3.39795,0 0.11767,0 0.11767,1.48242 0,1.48242 0,0 -12.98194,0 -12.98194,0 -0.12012,0 -0.12012,-1.48242 0,-1.48242 0,0 3.33594,0 3.33594,0 0.30176,0 0.77295,0.0488 0.77295,0.0488 0,0 -0.28516,-0.20117 -0.28516,-0.29004 0,0 0,-22.41211 0,-22.41211 0,-0.24316 -0.12304,-0.24316 -0.48779,-0.24316 0,0 -3.33594,0 -3.33594,0 -0.12012,0 -0.12012,-1.47559 0,-1.47559 0,0 9.04102,0 9.04102,0 0.17871,0 0.17871,0.0615 0.17871,0.19043 0,0 0,5.22363 0,5.22363 1.15283,-3.5205 4.35205,-5.91601 7.86523,-5.91601 3.10059,0 4.99073,2.1748 4.99073,5.04004 0,2.66894 -1.46973,3.82617 -2.98487,3.82617"
         style="fill:#6f7072;fill-opacity:1;fill-rule:nonzero;stroke:none"
         id="path3384"
         inkscape:connector-curvature="0" /><path
         d="m 385.4082,-269.36426 c 0,0 -3.34277,0 -3.34277,0 -0.30811,0 -0.60205,0.0576 -0.60205,0.0576 0,0 0.2998,-0.20117 0.2998,-0.29981 0,0 0,-14.56347 0,-14.56347 0,-6.78809 -2.79589,-10.1543 -9.0581,-10.1543 -2.79688,0 -6.93164,2.08496 -8.08301,5.49024 0,0 0,-4.75782 0,-4.75782 0,-0.0937 0,-0.15039 -0.0791,-0.17187 -0.0298,-0.009 -0.0649,-0.0147 -0.11182,-0.0147 0,0 -9.05078,0 -9.05078,0 -0.11816,0 -0.11816,1.50195 0,1.50195 0,0 3.39893,0 3.39893,0 0.24414,0 0.48388,0.0635 0.48681,0.24707 0,0 0,22.42285 0,22.42285 0,0.13965 0.30616,0.28418 0.30616,0.28418 0,0 -0.21387,-0.042 -0.51807,-0.042 0,0 -3.67383,0 -3.67383,0 -0.12305,0 -0.12305,1.48926 0,1.48926 0,0 13.00781,0 13.00781,0 0.125,0 0.125,-1.48926 0,-1.48926 0,0 -3.458,0 -3.458,0 -0.167,0 -0.61914,0.0576 -0.61914,0.0576 0,0 0.31103,-0.15234 0.31103,-0.29981 0,0 0,-15.80664 0,-15.80664 1.51807,-4.55566 4.41699,-7.00488 7.36231,-7.00488 2.41796,0 4.18603,1.66211 4.18603,6.20313 0,0 0,16.60839 0,16.60839 0,0.10254 0.28467,0.29981 0.28467,0.29981 0,0 -0.35108,-0.0576 -0.58594,-0.0576 0,0 -3.3457,0 -3.3457,0 -0.18506,0 -0.18506,1.48926 0,1.48926 0,0 12.88476,0 12.88476,0 0.18409,0 0.18409,-1.48926 0,-1.48926"
         style="fill:#6f7072;fill-opacity:1;fill-rule:nonzero;stroke:none"
         id="path3386"
         inkscape:connector-curvature="0" /><path
         d="m 436.49805,-266.83203 c -6.46875,0 -10.46192,-4.15235 -10.46192,-7.01758 0,-1.87988 1.23535,-3.16309 3.04395,-3.16309 1.19531,0 2.82031,0.53321 2.82031,2.1875 0,1.21387 -1.01758,1.90918 -0.9043,3.05762 0,1.73047 2.96485,3.40723 5.7002,3.40723 3.33594,0 6.66504,-2.36328 6.66504,-5.55371 0,-2.46485 -3.06543,-3.50586 -5.59375,-4.21485 0,0 -1.7461,-0.46972 -1.7461,-0.46972 -6.66406,-1.82325 -8.22265,-4.72364 -8.22265,-7.97364 0,-5.0664 4.81445,-7.99121 8.81055,-7.99121 5.06347,0 8.15429,2.41114 8.3125,4.8291 0.12695,1.90723 -0.92774,2.96485 -2.86719,3.00489 -1.87891,0.043 -2.78321,-1.04199 -2.78321,-2.21582 0,-0.83399 0.61719,-1.50098 0.61719,-2.50489 0,-0.5 -0.0449,-1.58496 -3.17578,-1.58496 -3.73437,0 -5.51367,2.6709 -5.51367,5.22364 0,2.0166 2.06445,3.11914 4.46582,3.7705 0,0 3.26465,0.90821 3.26465,0.90821 5.52636,1.55468 8.03125,3.57226 8.03125,8.05078 0,5.19922 -4.66895,8.25 -10.46289,8.25"
         style="fill:#6f7072;fill-opacity:1;fill-rule:nonzero;stroke:none"
         id="path3388"
         inkscape:connector-curvature="0" /><path
         d="m 406.00781,-292.9541 c -3.0625,0 -6.36133,2.2373 -6.72119,9.05762 0,0 12.38135,0 12.38135,0 -0.082,-6.97461 -2.56836,-9.05762 -5.66016,-9.05762 m 10.88379,10.75293 c 0,0 -17.65869,0 -17.65869,0 0,2.68945 -0.46924,13.07324 7.35498,13.07324 4.51758,0 6.8291,-2.17285 9.00684,-5.24316 0.0517,-0.0684 1.10058,0.8291 1.04785,0.958 -2.14258,3.60645 -5.90235,6.27246 -10.4961,6.27246 -7.16064,0 -12.56689,-6.14648 -12.56689,-13.6416 0,-7.5039 5.40625,-13.65136 12.56689,-13.65136 7.64942,0 10.92579,7.23925 10.92579,12.05078 0,0.125 -0.0625,0.18164 -0.18067,0.18164"
         style="fill:#6f7072;fill-opacity:1;fill-rule:nonzero;stroke:none"
         id="path3390"
         inkscape:connector-curvature="0" /><path
         d="m 309.65723,-281.33398 c -2.36133,1.76171 -9.46192,-0.51368 -9.46192,7.69335 0,2.6084 1.03076,4.72657 4.00196,4.72657 3.52002,0 5.45996,-3.9961 5.45996,-7.15918 0,0 0,-5.26074 0,-5.26074 z m 5.16113,14.06835 c -2.66992,0 -4.54932,-2.30761 -4.97705,-4.85546 -0.91211,2.30468 -2.86328,4.91015 -7.11817,4.91015 -4.1289,0 -7.87011,-1.99902 -7.87011,-6.42969 0,-6.37304 5.58008,-7.46679 8.00537,-7.71289 3.28076,-0.30078 6.79883,-0.54101 6.79883,-1.81836 0,0 0,-4.61132 0,-4.61132 0,-4.86133 -2.12598,-4.97852 -4.37403,-4.97852 -1.64404,0 -2.9082,0.88281 -2.9082,1.80176 0,1.09277 0.54736,1.1748 0.54736,2.1416 0,1.15332 -0.84814,2.18848 -2.67236,2.18848 -1.87695,0 -2.54785,-1.46192 -2.54785,-2.73047 0,-2.1875 2.79492,-4.86035 7.52588,-4.86035 6.31299,0 9.89111,3.40039 9.89111,10.98437 0,0 0,11.83985 0,11.83985 0,1.5166 0.5459,2.1289 1.271,2.1289 0.97314,0 1.64111,-0.54883 1.82324,-1.2168 0.0576,-0.12109 0.91553,0.72657 0.854,0.84766 -0.36523,1.09473 -1.94433,2.37109 -4.24902,2.37109"
         style="fill:#6f7072;fill-opacity:1;fill-rule:nonzero;stroke:none"
         id="path3392"
         inkscape:connector-curvature="0" /></g></g></svg>