<?xml version="1.0" encoding="UTF-8" standalone="no"?>
<!-- Created with Inkscape (http://www.inkscape.org/) -->

<svg
   xmlns:dc="http://purl.org/dc/elements/1.1/"
   xmlns:cc="http://creativecommons.org/ns#"
   xmlns:rdf="http://www.w3.org/1999/02/22-rdf-syntax-ns#"
   xmlns:svg="http://www.w3.org/2000/svg"
   xmlns="http://www.w3.org/2000/svg"
   xmlns:sodipodi="http://sodipodi.sourceforge.net/DTD/sodipodi-0.dtd"
   xmlns:inkscape="http://www.inkscape.org/namespaces/inkscape"
   id="svg2"
   version="1.1"
   inkscape:version="0.91 r13725"
   xml:space="preserve"
   width="360.57199"
   height="95.390015"
   viewBox="0 0 360.57199 95.390015"
   sodipodi:docname="register.svg"><metadata
     id="metadata8"><rdf:RDF><cc:Work
         rdf:about=""><dc:format>image/svg+xml</dc:format><dc:type
           rdf:resource="http://purl.org/dc/dcmitype/StillImage" /><dc:title></dc:title></cc:Work></rdf:RDF></metadata><defs
     id="defs6"><clipPath
       clipPathUnits="userSpaceOnUse"
       id="clipPath16"><path
         d="m 254.30713,-260.98535 c 0,0 293.85791,0 293.85791,0 0,0 0,-76.90576 0,-76.90576 0,0 -293.85791,0 -293.85791,0 0,0 0,76.90576 0,76.90576 z"
         id="path18"
         inkscape:connector-curvature="0" /></clipPath></defs><sodipodi:namedview
     pagecolor="#ffffff"
     bordercolor="#666666"
     borderopacity="1"
     objecttolerance="10"
     gridtolerance="10"
     guidetolerance="10"
     inkscape:pageopacity="0"
     inkscape:pageshadow="2"
     inkscape:window-width="1362"
     inkscape:window-height="729"
     id="namedview4"
     showgrid="false"
     inkscape:zoom="0.31466667"
     inkscape:cx="-340.69489"
     inkscape:cy="48.768316"
     inkscape:window-x="1920"
     inkscape:window-y="18"
     inkscape:window-maximized="0"
     inkscape:current-layer="g10"
     fit-margin-top="0"
     fit-margin-left="0"
     fit-margin-right="0"
     fit-margin-bottom="0" /><g
     id="g10"
     inkscape:groupmode="layer"
     inkscape:label="register"
     transform="matrix(1.25,0,0,-1.25,-317.91947,421.6217)"><g
       id="g12"
       transform="scale(1,-1)"><g
         id="g14"
         clip-path="url(#clipPath16)"><path
           d="m 373.90869,-300.55664 c 0,0 17.26514,0 17.26514,0 0,0 0,1.30273 0,1.30273 0,0 -8.03809,0 -8.03809,0 0,0 0,16.95801 0,16.95801 0,1.05664 0.10401,1.54395 0.30811,2.20215 0.20898,0.66211 0.48193,1.1709 0.81982,1.52832 0.34082,0.35938 0.71289,0.59473 1.10498,0.70898 0.39795,0.11133 0.77979,0.16895 1.16211,0.16895 1.31983,0 2.42774,-0.44629 3.19385,-1.44434 0.94824,-1.23242 1.35693,-2.87207 1.35693,-2.87207 0.29297,-0.0293 0.9961,0.36231 0.9961,0.36231 -0.11377,0.49316 -0.28516,1.04004 -0.51075,1.64355 -0.22412,0.60547 -0.57617,1.18067 -1.04931,1.72559 -0.46778,0.54785 -1.08399,1.00195 -1.83692,1.3584 -0.75781,0.35644 -1.69921,0.53613 -2.83007,0.53613 -2.82911,0 -4.80176,-0.5459 -5.91211,-1.63965 -1.11182,-1.09375 -1.66993,-2.64062 -1.66993,-4.63867 0,0 0,-16.59766 0,-16.59766 0,0 -4.35986,0 -4.35986,0 0,0 0,-1.30273 0,-1.30273 z"
           style="fill:#6e7071;fill-opacity:1;fill-rule:nonzero;stroke:none"
           id="path20"
           inkscape:connector-curvature="0" /><path
           d="m 320.90137,-293.86035 c 0,-0.87012 -0.0581,-1.74707 -0.16797,-2.63574 -0.11377,-0.88477 -0.35205,-1.69629 -0.70996,-2.43164 -0.35694,-0.73584 -0.90528,-1.32911 -1.64209,-1.78174 -0.73194,-0.45117 -1.72217,-0.68116 -2.96875,-0.68116 -1.92627,0 -3.37598,0.58692 -4.35938,1.75391 -0.97802,1.16992 -1.4707,3.0957 -1.4707,5.77637 0,1.1289 0.0869,2.14746 0.25879,3.05469 0.16699,0.90429 0.48291,1.6875 0.93017,2.34472 0.45508,0.66016 1.05811,1.16211 1.81202,1.50098 0.75195,0.33984 1.71484,0.51074 2.88769,0.51074 1.95899,0 3.35498,-0.61328 4.18311,-1.84082 0.83203,-1.22266 1.24707,-3.08496 1.24707,-5.57031 m -9.16797,18.39062 c -0.49121,0.29785 -0.98877,0.61133 -1.5,0.93164 -0.50781,0.31934 -0.96094,0.72559 -1.35596,1.21778 -0.39599,0.48926 -0.72119,1.06445 -0.96094,1.72363 -0.24804,0.66113 -0.37207,1.48438 -0.37207,2.46387 0,1.35742 0.23389,2.47851 0.70899,3.36621 0.47021,0.88574 1.07519,1.60351 1.81006,2.15137 0.73486,0.54492 1.55908,0.93261 2.46289,1.16113 0.90722,0.22461 1.79492,0.33691 2.66211,0.33691 1.35498,0 2.59277,-0.20801 3.70507,-0.62304 1.10987,-0.41504 2.07276,-0.97168 2.88672,-1.66895 0.81202,-0.69922 1.43116,-1.49805 1.86719,-2.4043 0.43213,-0.90625 0.65088,-1.84961 0.65088,-2.83203 0,-2.10937 -0.57617,-3.61133 -1.72607,-4.49316 -1.14991,-0.8916 -2.72608,-1.33106 -4.72706,-1.33106 0,0 -6.11181,0 -6.11181,0 z m -8.48877,-5.3789 c 0,-1.0166 0.19189,-1.89258 0.56592,-2.62989 0.37793,-0.73828 0.83984,-1.37695 1.39306,-1.92382 0.542,-0.54688 1.12696,-0.99219 1.74756,-1.33008 0.625,-0.34082 1.18018,-0.6211 1.67432,-0.84863 -2.1919,-1.50879 -3.28711,-3.5459 -3.28711,-6.11329 0,-1.31933 0.3208,-2.50488 0.96484,-3.56543 0.64014,-1.05468 1.45215,-1.95068 2.43311,-2.68701 0.97803,-0.73584 2.06201,-1.29101 3.25,-1.66699 1.19189,-0.37891 2.33496,-0.56885 3.42627,-0.56885 1.69678,0 3.15967,0.34082 4.38574,1.02198 1.22314,0.67626 2.12207,1.29882 2.68506,1.86523 0.41797,-0.71631 1.02978,-1.37598 1.84375,-1.9834 0.80713,-0.60058 1.8164,-0.90381 3.02441,-0.90381 0.75391,0 1.45703,0.16211 2.09668,0.48194 0.64112,0.32129 0.95899,1.01123 0.95899,2.06396 0,0.68164 -0.2168,1.18945 -0.64795,1.53125 -0.43701,0.33496 -0.87793,0.50684 -1.33106,0.50684 -0.52783,0 -0.90771,-0.14942 -1.13281,-0.45313 -0.2251,-0.29883 -0.42578,-0.62109 -0.5918,-0.95996 -0.17138,-0.33984 -0.35009,-0.65967 -0.54199,-0.96191 -0.18603,-0.30274 -0.46533,-0.45313 -0.84619,-0.45313 -0.37891,0 -0.76123,0.16113 -1.16211,0.47998 -0.39307,0.31934 -0.7417,0.68897 -1.04785,1.10401 0.3418,0.37597 0.77588,1.01855 1.30176,1.9248 0.52929,0.9043 0.79638,2.03516 0.79638,3.39551 0,1.12988 -0.28125,2.16894 -0.85009,3.1123 -0.56397,0.94043 -1.31397,1.77149 -2.23536,2.48828 -0.9248,0.71973 -2,1.27247 -3.22461,1.66993 -1.22705,0.39648 -2.48339,0.59375 -3.76318,0.59375 -1.3208,0 -2.47119,-0.17774 -3.45312,-0.53614 -0.98096,-0.35937 -1.73877,-0.66796 -2.2627,-0.93359 -0.41113,0.1875 -0.85937,0.39551 -1.33203,0.62109 -0.46826,0.22754 -0.9043,0.50977 -1.29932,0.84864 -0.39502,0.34082 -0.72802,0.74707 -0.98779,1.21679 -0.26709,0.47168 -0.396,1.00782 -0.396,1.61524 0,0.56445 0.10889,1.03515 0.33789,1.41113 0.2251,0.37891 0.51905,0.66113 0.87598,0.84961 0.35693,0.18848 0.76611,0.32129 1.21729,0.39648 0.45459,0.0781 0.91992,0.11426 1.41259,0.11426 0,0 8.94336,0 8.94336,0 2.64063,0 4.74073,0.63086 6.30811,1.89746 1.56494,1.26075 2.3457,3.25196 2.3457,5.96778 0,1.66015 -0.35595,3.16894 -1.07178,4.52636 -0.72021,1.3584 -1.66699,2.53614 -2.86035,3.53809 -1.18799,0.99805 -2.55371,1.77246 -4.09863,2.32129 -1.54736,0.54687 -3.13037,0.81933 -4.75537,0.81933 -1.4707,0 -2.81982,-0.17089 -4.0459,-0.51074 -1.22998,-0.34179 -2.29199,-0.80078 -3.19971,-1.38574 -0.90625,-0.58594 -1.60498,-1.29297 -2.11914,-2.12305 -0.51025,-0.83007 -0.76123,-1.75488 -0.76123,-2.77148 0,-0.98242 0.19336,-1.87598 0.59131,-2.68848 0.396,-0.81054 0.90576,-1.52929 1.52686,-2.14746 0.625,-0.62305 1.333,-1.16308 2.12109,-1.61328 0.79199,-0.45508 1.58594,-0.83105 2.37793,-1.13379 0,0 0,-0.11133 0,-0.11133 -2.49023,0 -4.32715,-0.4082 -5.521,-1.21972 -1.18505,-0.8125 -1.77978,-2.19727 -1.77978,-4.15918"
           style="fill:#6e7071;fill-opacity:1;fill-rule:nonzero;stroke:none"
           id="path22"
           inkscape:connector-curvature="0" /><path
           d="m 333.98438,-278.43848 c 0,0 3.95312,0 3.95312,0 0,0 0.64697,0.0527 0.64697,0.0527 0,0 -0.24414,-0.2041 -0.24414,-0.28906 0,0 0,-20.56983 0,-20.56983 0,0 -4.35595,0 -4.35595,0 0,0 0,-1.28516 0,-1.28516 0,0 9.22412,0 9.22412,0 0,0 0,21.83838 0,21.83838 0,0.085 -0.26709,0.32325 -0.26709,0.32325 0,0 0.68115,-0.0703 0.68115,-0.0703 0,0 3.94385,0 3.94385,0 0,0 0.16601,0.7627 0,1.30274 0,0 -13.58203,0 -13.58203,0 -0.15479,-0.88672 0,-1.30274 0,-1.30274"
           style="fill:#6e7071;fill-opacity:1;fill-rule:nonzero;stroke:none"
           id="path24"
           inkscape:connector-curvature="0" /><path
           d="m 478.63965,-278.43848 c 0,0 3.95312,0 3.95312,0 0,0 0.64746,0.0527 0.64746,0.0527 0,0 -0.24414,-0.2041 -0.24414,-0.28906 0,0 0,-20.56983 0,-20.56983 0,0 -4.35644,0 -4.35644,0 0,0 0,-1.28516 0,-1.28516 0,0 9.22363,0 9.22363,0 0,0 0,21.83838 0,21.83838 0,0.085 -0.2666,0.32325 -0.2666,0.32325 0,0 0.68066,-0.0703 0.68066,-0.0703 0,0 3.94434,0 3.94434,0 0,0 0.16602,0.7627 0,1.30274 0,0 -13.58203,0 -13.58203,0 -0.15527,-0.88672 0,-1.30274 0,-1.30274"
           style="fill:#6e7071;fill-opacity:1;fill-rule:nonzero;stroke:none"
           id="path26"
           inkscape:connector-curvature="0" /><path
           d="m 442.32813,-279.5459 c 0,-0.83105 0.28906,-1.53711 0.87109,-2.12207 0.58398,-0.58203 1.2998,-0.87695 2.12891,-0.87695 0.82617,0 1.53515,0.29492 2.11914,0.87695 0.58007,0.58496 0.87695,1.29102 0.87695,2.12207 0,0.8291 -0.29688,1.53711 -0.87695,2.12207 -0.58399,0.58399 -1.29297,0.87598 -2.11914,0.87598 -0.82911,0 -1.54493,-0.29199 -2.12891,-0.87598 -0.58203,-0.58496 -0.87109,-1.29297 -0.87109,-2.12207"
           style="fill:#6e7071;fill-opacity:1;fill-rule:nonzero;stroke:none"
           id="path28"
           inkscape:connector-curvature="0" /><path
           d="m 271.7417,-292.98242 c -1.65723,0 -2.64404,-0.93946 -2.64404,-2.09766 0,-1.37402 0.7207,-1.48633 0.7207,-2.53515 0,-0.99024 -0.66602,-1.59571 -1.43604,-1.59571 -2.36181,0 -4.71484,2.7793 -5.59863,6.91016 0,0 0,13.62207 0,13.62207 0,0.0732 -0.26904,0.26367 -0.26904,0.26367 0,0 0.34668,-0.0439 0.60205,-0.0439 0,0 3.07861,0 3.07861,0 0.10742,0 0.10742,1.34472 0,1.34472 0,0 -11.77588,0 -11.77588,0 -0.11181,0 -0.11181,-1.34472 0,-1.34472 0,0 3.02686,0 3.02686,0 0.271,0 0.7041,0.0439 0.7041,0.0439 0,0 -0.26172,-0.18066 -0.26172,-0.26367 0,0 0,-20.3335 0,-20.3335 0,-0.22363 -0.1123,-0.22363 -0.44238,-0.22363 0,0 -3.02686,0 -3.02686,0 -0.11181,0 -0.11181,-1.33838 0,-1.33838 0,0 8.20606,0 8.20606,0 0.1582,0 0.1582,0.0581 0.1582,0.17236 0,0 0,4.7417 0,4.7417 1.04688,-3.19726 3.94776,-5.3667 7.13867,-5.3667 2.80811,0 4.52735,1.97168 4.52735,4.57276 0,2.42187 -1.33399,3.47168 -2.70801,3.47168"
           style="fill:#6e7071;fill-opacity:1;fill-rule:nonzero;stroke:none"
           id="path30"
           inkscape:connector-curvature="0" /><path
           d="m 440.0752,-292.98242 c -1.65723,0 -2.64942,-0.93946 -2.64942,-2.09766 0,-1.37402 0.7207,-1.48633 0.7207,-2.53515 0,-0.99024 -0.65722,-1.59571 -1.43164,-1.59571 -2.36132,0 -4.71582,2.7793 -5.59668,6.91016 0,0 0,13.62207 0,13.62207 0,0.0732 -0.2705,0.26367 -0.2705,0.26367 0,0 0.3457,-0.0439 0.60254,-0.0439 0,0 3.08007,0 3.08007,0 0.1084,0 0.1084,1.34472 0,1.34472 0,0 -11.77636,0 -11.77636,0 -0.11133,0 -0.11133,-1.34472 0,-1.34472 0,0 3.02343,0 3.02343,0 0.27735,0 0.70606,0.0439 0.70606,0.0439 0,0 -0.26074,-0.18066 -0.26074,-0.26367 0,0 0,-20.3335 0,-20.3335 0,-0.22363 -0.1084,-0.22363 -0.44532,-0.22363 0,0 -3.02343,0 -3.02343,0 -0.11133,0 -0.11133,-1.33838 0,-1.33838 0,0 8.20312,0 8.20312,0 0.16113,0 0.16113,0.0581 0.16113,0.17236 0,0 0,4.7417 0,4.7417 1.04883,-3.19726 3.94825,-5.3667 7.13965,-5.3667 2.80957,0 4.52442,1.97168 4.52442,4.57276 0,2.42187 -1.33496,3.47168 -2.70703,3.47168"
           style="fill:#6e7071;fill-opacity:1;fill-rule:nonzero;stroke:none"
           id="path32"
           inkscape:connector-curvature="0" /><path
           d="m 464.57031,-276.41992 c -5.86816,0 -9.49218,-3.76953 -9.49218,-6.36914 0,-1.70606 1.12109,-2.86914 2.76367,-2.86914 1.08398,0 2.56152,0.48437 2.56152,1.9873 0,1.09961 -0.9248,1.73047 -0.82324,2.77051 0,1.56934 2.6914,3.09473 5.1748,3.09473 3.02051,0 6.0459,-2.14551 6.0459,-5.04004 0,-2.2334 -2.78125,-3.17871 -5.07617,-3.8252 0,0 -1.58594,-0.42676 -1.58594,-0.42676 -6.04687,-1.65332 -7.45703,-4.28613 -7.45703,-7.23242 0,-4.59765 4.36914,-7.25293 7.98633,-7.25293 4.59961,0 7.40527,2.18701 7.54883,4.38281 0.11523,1.7295 -0.8418,2.69141 -2.60254,2.72754 -1.70508,0.0352 -2.52637,-0.94824 -2.52637,-2.01172 0,-0.75585 0.5625,-1.36132 0.5625,-2.27343 0,-0.45313 -0.0381,-1.43701 -2.88281,-1.43701 -3.38867,0 -5.00391,2.42334 -5.00391,4.73779 0,1.83203 1.87305,2.83203 4.05078,3.41992 0,0 2.96485,0.82715 2.96485,0.82715 5.01367,1.41016 7.28711,3.24023 7.28711,7.30176 0,4.71777 -4.23926,7.48828 -9.4961,7.48828"
           style="fill:#6e7071;fill-opacity:1;fill-rule:nonzero;stroke:none"
           id="path34"
           inkscape:connector-curvature="0" /><path
           d="m 361.34424,-276.41992 c -5.86914,0 -9.49219,-3.76953 -9.49219,-6.36914 0,-1.70606 1.12109,-2.86914 2.76025,-2.86914 1.08594,0 2.56055,0.48437 2.56055,1.9873 0,1.09961 -0.92285,1.73047 -0.8208,2.77051 0,1.56934 2.6919,3.09473 5.17285,3.09473 3.02295,0 6.04297,-2.14551 6.04297,-5.04004 0,-2.2334 -2.77685,-3.17871 -5.0708,-3.8252 0,0 -1.58398,-0.42676 -1.58398,-0.42676 -6.0459,-1.65332 -7.45899,-4.28613 -7.45899,-7.23242 0,-4.59765 4.37012,-7.25293 7.99121,-7.25293 4.59278,0 7.39698,2.18701 7.54199,4.38281 0.11768,1.7295 -0.84033,2.69141 -2.60302,2.72754 -1.7041,0.0352 -2.521,-0.94824 -2.521,-2.01172 0,-0.75585 0.55567,-1.36132 0.55567,-2.27343 0,-0.45313 -0.0356,-1.43701 -2.87989,-1.43701 -3.38574,0 -5.00488,2.42334 -5.00488,4.73779 0,1.83203 1.875,2.83203 4.05371,3.41992 0,0 2.96338,0.82715 2.96338,0.82715 5.01465,1.41016 7.28271,3.24023 7.28271,7.30176 0,4.71777 -4.23486,7.48828 -9.48974,7.48828"
           style="fill:#6e7071;fill-opacity:1;fill-rule:nonzero;stroke:none"
           id="path36"
           inkscape:connector-curvature="0" /><path
           d="m 406.9873,-299.87207 c -2.77929,0 -5.7705,2.03125 -6.09619,8.2168 0,0 11.23096,0 11.23096,0 -0.0732,-6.3252 -2.3291,-8.2168 -5.13477,-8.2168 m 9.87403,9.75684 c 0,0 -16.02002,0 -16.02002,0 0,2.44238 -0.42627,11.8623 6.67236,11.8623 4.09961,0 6.19922,-1.96973 8.16797,-4.75684 0.0537,-0.0615 1.00195,0.75293 0.95508,0.86817 -1.94238,3.27441 -5.3584,5.68945 -9.52344,5.68945 -6.49512,0 -11.40332,-5.57519 -11.40332,-12.375 0,-6.80859 4.9082,-12.38672 11.40332,-12.38672 6.93945,0 9.91602,6.57129 9.91602,10.93555 0,0.1123 -0.0586,0.16309 -0.16797,0.16309"
           style="fill:#6e7071;fill-opacity:1;fill-rule:nonzero;stroke:none"
           id="path38"
           inkscape:connector-curvature="0" /><path
           d="m 289.56738,-299.87207 c -2.77929,0 -5.77295,2.03125 -6.10205,8.2168 0,0 11.23194,0 11.23194,0 -0.0723,-6.3252 -2.32911,-8.2168 -5.12989,-8.2168 m 9.87403,9.75684 c 0,0 -16.02198,0 -16.02198,0 0,2.44238 -0.42724,11.8623 6.66993,11.8623 4.10107,0 6.20166,-1.96973 8.17285,-4.75684 0.0449,-0.0615 1,0.75293 0.95312,0.86817 -1.94629,3.27441 -5.35791,5.68945 -9.52392,5.68945 -6.49903,0 -11.40332,-5.57519 -11.40332,-12.375 0,-6.80859 4.90429,-12.38672 11.40332,-12.38672 6.94189,0 9.91357,6.57129 9.91357,10.93555 0,0.1123 -0.0557,0.16309 -0.16357,0.16309"
           style="fill:#6e7071;fill-opacity:1;fill-rule:nonzero;stroke:none"
           id="path40"
           inkscape:connector-curvature="0" /><path
           d="m 517.53418,-306.69824 c 3.7002,-3.8667 5.625,-8.45801 6.45996,-13.04785 3.96484,3.3999 6.49316,7.92822 7.5,13.0332 -4.11523,1.35596 -8.55859,1.58105 -14.07226,-0.0102 m 25.30957,-7.64014 c -0.13379,-0.16699 -0.33887,-0.0137 -0.33887,-0.0137 -2.41992,2.85205 -5.33106,5.2417 -9.06934,6.98193 -1.13086,-5.96728 -3.17285,-10.49609 -9.10058,-15.10791 -0.27051,-5.81396 -1.76368,-10.21533 -4.86914,-14.69922 -0.19434,-0.23193 -0.51368,0 -0.40039,0.26611 2.4121,4.10596 3.56054,8.74073 3.32812,13.49317 -5.42969,-2.50342 -10.1709,-3.10303 -15.9375,-2.20801 -0.28906,0.0688 -0.23047,0.48486 0.0615,0.47363 5.81153,-0.31005 11.11817,0.96241 15.62696,4.1001 -0.91797,5.02783 -2.98145,9.73486 -6.89551,13.56201 -9.19629,-3.48193 -14.0166,-11.42675 -15.20899,-18.88574 -0.0879,-0.28223 -0.47558,-0.21142 -0.45703,0.0815 0.91602,8.46045 5,15.85645 13.66993,20.51709 -3.92969,3.27491 -9.81348,5.47998 -15.51856,5.38233 -0.30469,0.0229 -0.31348,0.41797 -0.0264,0.47265 6.56055,0.61817 12.61719,-1.00293 18.00879,-4.8916 5.625,1.46387 10.85254,1.73194 16.19629,-0.0864 0.46973,4.90918 -0.27441,9.74756 -2.5,14.12841 -0.10742,0.28321 0.23633,0.46583 0.41797,0.23047 2.84863,-4.6875 3.94434,-9.47363 3.7998,-15.0249 4.42774,-2.62353 6.75489,-5.05664 9.2168,-8.45361 0,0 0.13281,-0.15723 -0.004,-0.31836"
           style="fill:#a6a345;fill-opacity:1;fill-rule:evenodd;stroke:none"
           id="path42"
           inkscape:connector-curvature="0" /></g></g></g></svg>