<?xml version="1.0" encoding="UTF-8" standalone="no"?>
<!-- Created with Inkscape (http://www.inkscape.org/) -->

<svg
   xmlns:dc="http://purl.org/dc/elements/1.1/"
   xmlns:cc="http://creativecommons.org/ns#"
   xmlns:rdf="http://www.w3.org/1999/02/22-rdf-syntax-ns#"
   xmlns:svg="http://www.w3.org/2000/svg"
   xmlns="http://www.w3.org/2000/svg"
   xmlns:sodipodi="http://sodipodi.sourceforge.net/DTD/sodipodi-0.dtd"
   xmlns:inkscape="http://www.inkscape.org/namespaces/inkscape"
   id="svg2"
   version="1.1"
   inkscape:version="0.91 r13725"
   xml:space="preserve"
   width="263.62073"
   height="76.817619"
   viewBox="0 0 263.62073 76.817619"
   sodipodi:docname="sicert.svg"><metadata
     id="metadata8"><rdf:RDF><cc:Work
         rdf:about=""><dc:format>image/svg+xml</dc:format><dc:type
           rdf:resource="http://purl.org/dc/dcmitype/StillImage" /><dc:title></dc:title></cc:Work></rdf:RDF></metadata><defs
     id="defs6"><clipPath
       clipPathUnits="userSpaceOnUse"
       id="clipPath16"><path
         d="m 288.67676,-260.98535 c 0,0 224.36328,0 224.36328,0 0,0 0,-76.90576 0,-76.90576 0,0 -224.36328,0 -224.36328,0 0,0 0,76.90576 0,76.90576 z"
         id="path18"
         inkscape:connector-curvature="0" /></clipPath></defs><sodipodi:namedview
     pagecolor="#ffffff"
     bordercolor="#666666"
     borderopacity="1"
     objecttolerance="10"
     gridtolerance="10"
     guidetolerance="10"
     inkscape:pageopacity="0"
     inkscape:pageshadow="2"
     inkscape:window-width="1362"
     inkscape:window-height="729"
     id="namedview4"
     showgrid="false"
     inkscape:zoom="0.31466667"
     inkscape:cx="-900.88932"
     inkscape:cy="29.626469"
     inkscape:window-x="1920"
     inkscape:window-y="18"
     inkscape:window-maximized="0"
     inkscape:current-layer="g10"
     fit-margin-top="0"
     fit-margin-left="0"
     fit-margin-right="0"
     fit-margin-bottom="0" /><g
     id="g10"
     inkscape:groupmode="layer"
     inkscape:label="sicert"
     transform="matrix(1.25,0,0,-1.25,-377.58422,422.19116)"><g
       id="g12"
       transform="scale(1,-1)"><g
         id="g14"
         clip-path="url(#clipPath16)"><path
           d="m 346.21582,-288.28516 c 0,-0.83886 0.29688,-1.55566 0.88867,-2.14941 0.58887,-0.58984 1.30371,-0.88477 2.14649,-0.88477 0.83886,0 1.55566,0.29493 2.14453,0.88477 0.59082,0.59375 0.88965,1.31055 0.88965,2.14941 0,0.83985 -0.29883,1.55469 -0.88965,2.14844 -0.58887,0.58887 -1.30567,0.88477 -2.14453,0.88477 -0.84278,0 -1.55762,-0.2959 -2.14649,-0.88477 -0.59179,-0.59375 -0.88867,-1.30859 -0.88867,-2.14844"
           style="fill:#6e7071;fill-opacity:1;fill-rule:nonzero;stroke:none"
           id="path20"
           inkscape:connector-curvature="0" /><path
           d="m 382.59863,-283.21582 c -0.11328,0.41113 -0.27929,0.83496 -0.75879,1.86035 -0.25586,0.54492 -0.91894,1.53223 -1.50683,2.17285 -0.69629,0.75879 -1.62403,1.43555 -2.80176,2.01563 -1.17383,0.57812 -2.69434,0.86816 -4.5625,0.86816 -1.41504,0 -2.88965,-0.22656 -4.41992,-0.67383 -1.53028,-0.44726 -2.92871,-1.16601 -4.19727,-2.15429 -1.26953,-0.98828 -2.30566,-2.28418 -3.10449,-3.88965 -0.80371,-1.60449 -1.20215,-3.58203 -1.20215,-5.93164 0,-1.8291 0.3418,-3.52539 1.03125,-5.0918 0.69141,-1.57031 1.62696,-2.93066 2.79981,-4.08887 1.17382,-1.15625 2.55566,-2.06054 4.14062,-2.7124 1.58692,-0.65088 3.27442,-0.97998 5.06543,-0.97998 1.00684,0 2.04492,0.12207 3.10742,0.36426 1.06446,0.24267 2.03321,0.61572 2.91016,1.11865 0.87598,0.50391 1.60644,1.15723 2.18457,1.95947 0.57617,0.80274 0.86719,1.78125 0.86719,2.9375 0,0.78516 -0.25586,1.42578 -0.75879,1.92969 -0.50195,0.50586 -1.22168,0.75781 -2.15528,0.75781 -0.63183,0 -1.24023,-0.1416 -1.81835,-0.42089 -0.57618,-0.2793 -0.86817,-0.75489 -0.86817,-1.42481 0,-0.52344 0.12988,-1.1582 0.39356,-1.90625 0.26269,-0.74609 0.39453,-1.36133 0.39453,-1.8457 0,-0.85889 -0.43067,-1.51953 -1.29004,-1.98682 -0.85938,-0.4668 -1.8457,-0.69775 -2.9668,-0.69775 -0.8164,0 -1.66797,0.10107 -2.5459,0.30761 -0.87695,0.20508 -1.68164,0.71631 -2.40625,1.53711 -0.72558,0.82032 -1.32812,2.05274 -1.78906,3.69532 -0.46973,1.6416 -0.70215,3.88086 -0.70215,6.71679 0,1.60157 0.10156,2.0918 0.3086,3.51075 0.20312,1.41796 0.51074,2.62597 1.04882,3.68945 0.54493,1.0625 1.29102,1.90039 2.23926,2.51562 0.95215,0.61719 2.19336,0.92383 3.72266,0.92383 1.64453,0 2.99512,-0.24121 4.05859,-0.72656 1.06445,-0.48438 1.9043,-1.07227 2.51856,-1.76367 0.61523,-0.68946 0.96582,-1.17578 1.30664,-1.86524 0.30957,-0.62695 0.58886,-1.22558 0.58886,-1.22558 0.74903,0.10254 1.16797,0.50488 1.16797,0.50488"
           style="fill:#6e7071;fill-opacity:1;fill-rule:nonzero;stroke:none"
           id="path22"
           inkscape:connector-curvature="0" /><path
           d="m 433.4873,-292.80859 c -1.6748,0 -2.67871,-0.94922 -2.67871,-2.12012 0,-1.39356 0.73047,-1.50293 0.73047,-2.56543 0,-1.00195 -0.66992,-1.61377 -1.45117,-1.61377 -2.39258,0 -4.76953,2.80811 -5.66211,6.98975 0,0 0,13.78027 0,13.78027 0,0.0772 -0.27539,0.26953 -0.27539,0.26953 0,0 0.35156,-0.0459 0.61035,-0.0459 0,0 3.11719,0 3.11719,0 0.1084,0 0.1084,1.36328 0,1.36328 0,0 -11.91895,0 -11.91895,0 -0.11035,0 -0.11035,-1.36328 0,-1.36328 0,0 3.06348,0 3.06348,0 0.27637,0 0.70996,0.0459 0.70996,0.0459 0,0 -0.26367,-0.18457 -0.26367,-0.26953 0,0 0,-20.57031 0,-20.57031 0,-0.22461 -0.11133,-0.22461 -0.44629,-0.22461 0,0 -3.06348,0 -3.06348,0 -0.11035,0 -0.11035,-1.35401 0,-1.35401 0,0 8.30176,0 8.30176,0 0.16504,0 0.16504,0.0591 0.16504,0.17286 0,0 0,4.79736 0,4.79736 1.0586,-3.23242 3.99512,-5.43115 7.21875,-5.43115 2.84668,0 4.58203,1.99462 4.58203,4.62548 0,2.4502 -1.35058,3.51368 -2.73926,3.51368"
           style="fill:#6e7071;fill-opacity:1;fill-rule:nonzero;stroke:none"
           id="path24"
           inkscape:connector-curvature="0" /><path
           d="m 311.66602,-276.34375 c -5.93164,0 -9.59864,-3.8125 -9.59864,-6.44141 0,-1.72754 1.13282,-2.90429 2.79395,-2.90429 1.0957,0 2.58691,0.48828 2.58691,2.01074 0,1.11133 -0.93457,1.75 -0.82812,2.80566 0,1.58594 2.71972,3.12696 5.23144,3.12696 3.0625,0 6.11817,-2.167 6.11817,-5.09961 0,-2.26075 -2.81543,-3.21582 -5.13575,-3.86621 0,0 -1.60058,-0.4336 -1.60058,-0.4336 -6.11914,-1.67383 -7.54785,-4.33789 -7.54785,-7.32129 0,-4.64941 4.41601,-7.33447 8.08593,-7.33447 4.64454,0 7.48536,2.21484 7.62989,4.43311 0.11914,1.75195 -0.85157,2.7207 -2.63086,2.75976 -1.72363,0.0381 -2.55078,-0.95703 -2.55078,-2.03418 0,-0.76758 0.56054,-1.3789 0.56054,-2.30078 0,-0.45703 -0.041,-1.45312 -2.91406,-1.45312 -3.42676,0 -5.0625,2.45117 -5.0625,4.79296 0,1.85547 1.89453,2.86329 4.09961,3.45899 0,0 2.99902,0.83789 2.99902,0.83789 5.07325,1.42676 7.37012,3.27734 7.37012,7.38965 0,4.77246 -4.28418,7.57324 -9.60644,7.57324"
           style="fill:#6e7071;fill-opacity:1;fill-rule:nonzero;stroke:none"
           id="path26"
           inkscape:connector-curvature="0" /><path
           d="m 399.7207,-300.06982 c -2.81445,0 -5.84179,2.05419 -6.17187,8.31201 0,0 11.36426,0 11.36426,0 -0.0752,-6.39844 -2.35547,-8.31201 -5.19239,-8.31201 m 9.98633,9.8706 c 0,0 -16.20898,0 -16.20898,0 0,2.4707 -0.42578,12 6.75293,12 4.1455,0 6.27246,-1.99316 8.27148,-4.81152 0.0449,-0.0635 1.01074,0.76074 0.95996,0.87988 -1.96777,3.31152 -5.41894,5.75684 -9.63867,5.75684 -6.57129,0 -11.53125,-5.64356 -11.53125,-12.52344 0,-6.88574 4.95996,-12.5293 11.53125,-12.5293 7.02539,0 10.0332,6.64551 10.0332,11.05957 0,0.11621 -0.0576,0.16797 -0.16992,0.16797"
           style="fill:#6e7071;fill-opacity:1;fill-rule:nonzero;stroke:none"
           id="path28"
           inkscape:connector-curvature="0" /><path
           d="m 487.60645,-307.03271 c 3.71386,-3.88282 5.64746,-8.4917 6.48535,-13.10157 3.97949,3.4126 6.51758,7.95996 7.53027,13.08594 -4.13574,1.36182 -8.59277,1.58594 -14.12695,-0.0112 m 25.40625,-7.66992 c -0.13184,-0.16699 -0.33887,-0.0132 -0.33887,-0.0132 -2.42969,2.86329 -5.35059,5.26123 -9.10254,7.00928 -1.13574,-5.98926 -3.18848,-10.53613 -9.13867,-15.16699 -0.27246,-5.83594 -1.77246,-10.25391 -4.88672,-14.75586 -0.19727,-0.23438 -0.51855,-0.002 -0.40234,0.26465 2.42187,4.12305 3.57519,8.77588 3.34277,13.54785 -5.4541,-2.51367 -10.21484,-3.11572 -16.00195,-2.21875 -0.29004,0.0718 -0.2334,0.48779 0.0615,0.47607 5.83789,-0.31005 11.16309,0.9668 15.68652,4.1167 -0.91796,5.04932 -2.99023,9.77637 -6.92285,13.61621 -9.22754,-3.49511 -14.07129,-11.47119 -15.26855,-18.95996 -0.0879,-0.2832 -0.47656,-0.21191 -0.45703,0.082 0.92089,8.49219 5.01757,15.91797 13.72363,20.59913 -3.94629,3.28759 -9.85352,5.50097 -15.58008,5.40087 -0.30566,0.0249 -0.31641,0.41993 -0.0254,0.47706 6.58398,0.61669 12.66406,-1.00928 18.08008,-4.91211 5.64551,1.46826 10.89551,1.73779 16.25683,-0.0899 0.47071,4.92969 -0.27636,9.7876 -2.50878,14.18604 -0.10645,0.28418 0.23925,0.46777 0.42187,0.23144 2.85742,-4.70605 3.95703,-9.50976 3.8125,-15.08252 4.44824,-2.63525 6.78223,-5.08007 9.25195,-8.48828 0,0 0.13477,-0.15576 -0.004,-0.31982"
           style="fill:#a72824;fill-opacity:1;fill-rule:evenodd;stroke:none"
           id="path30"
           inkscape:connector-curvature="0" /><path
           d="m 440.11328,-300.55664 c 0,0 17.26465,0 17.26465,0 0,0 0,1.30273 0,1.30273 0,0 -8.03809,0 -8.03809,0 0,0 0,16.95801 0,16.95801 0,1.05664 0.1045,1.54395 0.3086,2.20215 0.20898,0.66211 0.48144,1.1709 0.81933,1.52832 0.34082,0.35938 0.71289,0.59473 1.10547,0.70898 0.39746,0.11133 0.78028,0.16895 1.16211,0.16895 1.31934,0 2.42774,-0.44629 3.19336,-1.44434 0.94824,-1.23242 1.3584,-2.87207 1.3584,-2.87207 0.29199,-0.0293 0.99512,0.36231 0.99512,0.36231 -0.11426,0.49316 -0.28516,1.04004 -0.51075,1.64355 -0.2246,0.60547 -0.57617,1.18067 -1.0498,1.72559 -0.46777,0.54785 -1.08398,1.00195 -1.83691,1.3584 -0.75782,0.35644 -1.69825,0.53613 -2.83008,0.53613 -2.82813,0 -4.80176,-0.5459 -5.91114,-1.63965 -1.1123,-1.09375 -1.67089,-2.64062 -1.67089,-4.63867 0,0 0,-16.59766 0,-16.59766 0,0 -4.35938,0 -4.35938,0 0,0 0,-1.30273 0,-1.30273 z"
           style="fill:#6e7071;fill-opacity:1;fill-rule:nonzero;stroke:none"
           id="path32"
           inkscape:connector-curvature="0" /><path
           d="m 325.89941,-278.43848 c 0,0 3.95313,0 3.95313,0 0,0 0.64648,0.0527 0.64648,0.0527 0,0 -0.24414,-0.2041 -0.24414,-0.28906 0,0 0,-20.56983 0,-20.56983 0,0 -4.35547,0 -4.35547,0 0,0 0,-1.28516 0,-1.28516 0,0 9.22364,0 9.22364,0 0,0 0,21.83838 0,21.83838 0,0.085 -0.2666,0.32325 -0.2666,0.32325 0,0 0.68066,-0.0703 0.68066,-0.0703 0,0 3.94434,0 3.94434,0 0,0 0.16601,0.7627 0,1.30274 0,0 -13.58204,0 -13.58204,0 -0.15527,-0.88672 0,-1.30274 0,-1.30274"
           style="fill:#6e7071;fill-opacity:1;fill-rule:nonzero;stroke:none"
           id="path34"
           inkscape:connector-curvature="0" /></g></g></g></svg>